<svg id="Capa_1" data-name="Capa 1" xmlns="http://www.w3.org/2000/svg" viewBox="0 0 200 200"><defs><style>.cls-1{fill:#fefefd;}.cls-2{fill:#ef9f3f;}.cls-3{fill:#fbf7eb;}</style></defs><path class="cls-1" d="M860.1,440.1q97.9,0,195.81-.1c3.42,0,4.1.67,4.09,4.09q-.2,95.91,0,191.82c0,3.42-.67,4.1-4.09,4.09q-95.91-.19-191.82,0c-3.42,0-4.1-.67-4.09-4.09Q860.2,538,860.1,440.1ZM891.81,524c-2.47.31-1.21,5-4.81,4-.94-.15-1.07-.86-1.11-1.63.62-3.23-.61-5.62-3.79-6.23-1.85-.35-4.83-1.32-5.6,1.19-.62,2-2.08,5.2,1.54,6.64a34.54,34.54,0,0,0,6.62,7.26c2.23,1.93,5.27,3.5,5.42,7.24A68.05,68.05,0,0,0,908,586.62a69.11,69.11,0,0,0,80.38,16.07c15-7,25.35-18.7,33.35-32.8,1.82.1,2.08-1.19,2.33-2.55a1.3,1.3,0,0,1,1.83-1.08c.71.25.72.94.53,1.65-.29,1-1.11,2.49.83,2.56a2.41,2.41,0,0,0,2.29-2.25c-.19-3.39,1.65-6.17,2.36-9.27a11.23,11.23,0,0,0,3.76-5.08c.38-1.34,1-3.14-.74-4s-2.53.37-3.37,1.85c-1,1.71-2,3.67-4.89,3.84.1-1.16.1-2,.25-2.76a66.48,66.48,0,0,0-1.42-32c-11.58-38.39-51.13-59.26-88.34-46.53C913.16,482.44,898.31,499.55,891.81,524Zm-3.35-2.71c.27.12.61.39.8.31s.26-.5.38-.78c-.27-.11-.61-.39-.8-.31S888.58,521,888.46,521.29Z" transform="translate(-860 -440)"/><path class="cls-2" d="M1021.76,569.89c-8,14.1-18.31,25.77-33.35,32.8A69.11,69.11,0,0,1,908,586.62a68.05,68.05,0,0,1-17.95-44.11c-.15-3.74-3.19-5.31-5.42-7.24A34.54,34.54,0,0,1,878,528c.26-2.28-1.41-5.43,1.6-6.54,3.18-1.18,3.78,2.17,5.07,4.09a4.35,4.35,0,0,0,1.18.85c0,.77.17,1.48,1.11,1.63.85,1.52,3.1,1.63,3.29,4,.44,5.48,1.39,6.12,6.93,4.73,7.55-1.89,15.09-3.87,22.52-6.18,10.15-3.15,12.57-2.59,18.49,5.5,1.11,1.52,2.4,2.36,4.23,1.79,2.15-.66,2.41-2.39,2.3-4.38-.35-6.34,2-9.95,7.54-11.57,9.22-2.68,18.52-5.1,27.7-7.91,8.39-2.57,13-9.62,12-17.71-.33-2.58-1-5.27-4.31-5-3.06.28-2.58,2.87-2.57,5,0,6.31-2.55,10-8.14,11.49-7.66,2.1-15.38,4-23,6.23-5.22,1.52-10.92,2.71-13.53,8.27-1.28,2.72-2.71,2.48-4.56,1.25-4-2.65-8.41-2.19-12.55-1.18-8.2,2-16.28,4.52-24.38,6.89-6.95,2-7.89,1.36-7.1-5.37,6.5-24.45,21.35-41.56,45.37-49.77,37.21-12.73,76.76,8.14,88.34,46.53a66.48,66.48,0,0,1,1.42,32c-.15.79-.15,1.6-.25,2.76,2.84-.17,3.91-2.13,4.89-3.84.84-1.48,1.64-2.72,3.37-1.85s1.12,2.67.74,4a11.23,11.23,0,0,1-3.76,5.08l-7,2.07c1.44-3.11,1.53-5-2.92-5.44s-8.64-2.41-13-3.19-8.42-1.35-13.1.13c-3.8,1.19-5.69-5.45-10.57-5.7-4.56-.24-9-2-13.58-2.87-7.22-1.45-8.44-2.51-9.58-9.21-.25-1.42-.5-2.67-2.29-2.64-1.55,0-1.73,1.24-2.06,2.38-1.66,5.77,2.34,11.46,9.53,13.3,5.62,1.43,11.25,2.93,17,4,4.09.78,6.25,2.74,6.06,7-.07,1.6.13,3.05,1.88,3.63s2.82-.66,3.44-2c2-4.38,5.26-4.88,9.49-3.84,6.59,1.62,13.24,3,19.87,4.43C1023.67,563.84,1022.2,566.68,1021.76,569.89Zm-46.7-3.69c0-2.83.13-4.33-1.59-4.66-.93-.19-1.55.63-1.46,1.57.51,5.25-3.59,5.7-7,6.7-5.44,1.57-11.68.86-16,5.76a2.61,2.61,0,0,1-2.31.15c-4.09-1.76-7.69.52-11.53,1-4.83.62-10.38,4-14.31-2.2a1.47,1.47,0,0,0-2.21-.24,2.41,2.41,0,0,0-.2,3.22c2,2.23,4,4.42,7.8,3.94a90.42,90.42,0,0,0,14.47-2.79c2.84-.85,4.81,0,6.53,2.17.72.93.74,2.94,2.67,2.25a2.74,2.74,0,0,0,1.66-2.84c-.08-3.2,2-4.28,4.63-4.9,4.52-1.09,9-2.17,13.54-3.27C973.61,571.14,975,568.4,975.06,566.2Z" transform="translate(-860 -440)"/><path class="cls-3" d="M891.81,524c-.79,6.73.15,7.41,7.1,5.37,8.1-2.37,16.18-4.89,24.38-6.89,4.14-1,8.55-1.47,12.55,1.18,1.85,1.23,3.28,1.47,4.56-1.25,2.61-5.56,8.31-6.75,13.53-8.27,7.63-2.22,15.35-4.13,23-6.23,5.59-1.53,8.16-5.18,8.14-11.49,0-2.17-.49-4.76,2.57-5,3.35-.31,4,2.38,4.31,5,1,8.09-3.57,15.14-12,17.71-9.18,2.81-18.48,5.23-27.7,7.91-5.58,1.62-7.89,5.23-7.54,11.57.11,2-.15,3.72-2.3,4.38-1.83.57-3.12-.27-4.23-1.79-5.92-8.09-8.34-8.65-18.49-5.5-7.43,2.31-15,4.29-22.52,6.18-5.54,1.39-6.49.75-6.93-4.73-.19-2.4-2.44-2.51-3.29-4C890.6,529.05,889.34,524.31,891.81,524Z" transform="translate(-860 -440)"/><path class="cls-3" d="M1021.76,569.89c.44-3.21,1.91-6,3.22-8.95l-.09.08,7-2.07c-.71,3.1-2.55,5.88-2.36,9.27a2.41,2.41,0,0,1-2.29,2.25c-1.94-.07-1.12-1.53-.83-2.56.19-.71.18-1.4-.53-1.65a1.3,1.3,0,0,0-1.83,1.08C1023.84,568.7,1023.58,570,1021.76,569.89Z" transform="translate(-860 -440)"/><path class="cls-3" d="M885.89,526.41a4.35,4.35,0,0,1-1.18-.85c-1.29-1.92-1.89-5.27-5.07-4.09-3,1.11-1.34,4.26-1.6,6.54-3.62-1.44-2.16-4.6-1.54-6.64.77-2.51,3.75-1.54,5.6-1.19C885.28,520.79,886.51,523.18,885.89,526.41Z" transform="translate(-860 -440)"/><path class="cls-3" d="M888.46,521.29c.12-.28.18-.7.38-.78s.53.2.8.31c-.12.28-.18.7-.38.78S888.73,521.41,888.46,521.29Z" transform="translate(-860 -440)"/><path class="cls-3" d="M1025,560.94c-6.63-1.46-13.28-2.81-19.87-4.43-4.23-1-7.54-.54-9.49,3.84-.62,1.39-1.58,2.67-3.44,2s-1.95-2-1.88-3.63c.19-4.24-2-6.2-6.06-7-5.7-1.08-11.33-2.58-17-4-7.19-1.84-11.19-7.53-9.53-13.3.33-1.14.51-2.35,2.06-2.38,1.79,0,2,1.22,2.29,2.64,1.14,6.7,2.36,7.76,9.58,9.21,4.54.91,9,2.63,13.58,2.87,4.88.25,6.77,6.89,10.57,5.7,4.68-1.48,8.8-.9,13.1-.13s8.62,2.73,13,3.19,4.36,2.33,2.92,5.44Z" transform="translate(-860 -440)"/><path class="cls-3" d="M975.06,566.2c-.07,2.2-1.45,4.94-5.32,5.88-4.51,1.1-9,2.18-13.54,3.27-2.6.62-4.71,1.7-4.63,4.9a2.74,2.74,0,0,1-1.66,2.84c-1.93.69-1.95-1.32-2.67-2.25-1.72-2.21-3.69-3-6.53-2.17a90.42,90.42,0,0,1-14.47,2.79c-3.75.48-5.75-1.71-7.8-3.94a2.41,2.41,0,0,1,.2-3.22,1.47,1.47,0,0,1,2.21.24c3.93,6.16,9.48,2.82,14.31,2.2,3.84-.5,7.44-2.78,11.53-1a2.61,2.61,0,0,0,2.31-.15c4.3-4.9,10.54-4.19,16-5.76,3.44-1,7.54-1.45,7-6.7-.09-.94.53-1.76,1.46-1.57C975.19,561.87,975.08,563.37,975.06,566.2Z" transform="translate(-860 -440)"/></svg>